<?xml version="1.0" encoding="UTF-8"?><svg id="Layer_1" xmlns="http://www.w3.org/2000/svg" width="32" height="32" viewBox="0 0 32 32"><defs><style>.cls-1{fill:#f5b8d6;}</style></defs><path class="cls-1" d="M16,8.32c-1.52,0-3,.45-4.27,1.29-1.26,.84-2.25,2.04-2.83,3.45-.58,1.4-.73,2.95-.44,4.44,.3,1.49,1.03,2.86,2.1,3.93,1.07,1.07,2.44,1.81,3.93,2.1,1.49,.3,3.03,.14,4.44-.44,1.4-.58,2.6-1.57,3.45-2.83,.84-1.26,1.29-2.75,1.29-4.27,0-2.04-.81-3.99-2.25-5.43-1.44-1.44-3.39-2.25-5.43-2.25Zm0,12.8c-1.01,0-2-.3-2.84-.86-.84-.56-1.5-1.36-1.89-2.3-.39-.94-.49-1.96-.29-2.96,.2-.99,.69-1.91,1.4-2.62,.72-.72,1.63-1.2,2.62-1.4,.99-.2,2.02-.1,2.96,.29,.94,.39,1.74,1.04,2.3,1.89,.56,.84,.86,1.83,.86,2.84,0,1.36-.55,2.66-1.5,3.62-.96,.96-2.26,1.5-3.62,1.5ZM23.04,0H8.96C6.58,0,4.3,.94,2.62,2.62,.94,4.3,0,6.58,0,8.96v14.08c0,2.38,.94,4.66,2.62,6.34,1.68,1.68,3.96,2.62,6.34,2.62h14.08c2.38,0,4.66-.94,6.34-2.62,1.68-1.68,2.62-3.96,2.62-6.34V8.96c0-2.38-.94-4.66-2.62-6.34C27.7,.94,25.42,0,23.04,0h0Zm6.4,23.04c0,.84-.17,1.67-.49,2.45-.32,.78-.79,1.48-1.39,2.08s-1.3,1.07-2.08,1.39c-.78,.32-1.61,.49-2.45,.49H8.96c-.84,0-1.67-.17-2.45-.49-.78-.32-1.48-.79-2.08-1.39-.59-.59-1.07-1.3-1.39-2.08-.32-.78-.49-1.61-.49-2.45V8.96c0-1.7,.67-3.33,1.87-4.53,1.2-1.2,2.83-1.87,4.53-1.87h14.08c.84,0,1.67,.17,2.45,.49,.78,.32,1.48,.79,2.08,1.39,.59,.59,1.07,1.3,1.39,2.08,.32,.78,.49,1.61,.49,2.45v14.08Zm-3.2-15.36c0,.38-.11,.75-.32,1.07-.21,.32-.51,.56-.86,.71-.35,.15-.74,.18-1.11,.11-.37-.07-.71-.26-.98-.53-.27-.27-.45-.61-.53-.98-.07-.37-.04-.76,.11-1.11,.15-.35,.39-.65,.71-.86s.69-.32,1.07-.32c.51,0,1,.2,1.36,.56,.36,.36,.56,.85,.56,1.36Z"/></svg>