<?xml version="1.0" encoding="UTF-8"?><svg id="Layer_1" xmlns="http://www.w3.org/2000/svg" width="34" height="34" viewBox="0 0 34 34"><defs><style>.cls-1{fill:#f5b8d6;stroke:#f5b8d6;}</style></defs><path class="cls-1" d="M20.02,2.5C17.98,1.2,15.61,.5,13.18,.5c-2.04,0-4.06,.49-5.87,1.44-1.81,.95-3.37,2.31-4.54,3.99-1.17,1.68-1.91,3.61-2.17,5.64-.26,2.03-.03,4.08,.68,6,.71,1.92,1.87,3.63,3.38,5,1.51,1.37,3.34,2.36,5.32,2.87,1.98,.51,4.05,.54,6.04,.09,1.84-.42,3.56-1.25,5.04-2.42l9.6,9.59c.56,.56,1.47,.56,2.03,0,.56-.56,.56-1.47,0-2.03l-9.59-9.59c1.41-1.77,2.32-3.89,2.64-6.14,.34-2.4-.02-4.85-1.04-7.05-1.01-2.2-2.64-4.07-4.68-5.38ZM6.25,6.24c1.84-1.84,4.33-2.87,6.93-2.87s5.1,1.03,6.93,2.87c1.84,1.84,2.87,4.33,2.87,6.93s-1.03,5.09-2.87,6.93c-1.84,1.84-4.33,2.87-6.93,2.87s-5.1-1.03-6.93-2.87c-1.84-1.84-2.87-4.33-2.87-6.93s1.03-5.09,2.87-6.93Z"/></svg>