<?xml version="1.0" encoding="UTF-8"?><svg id="Layer_1" xmlns="http://www.w3.org/2000/svg" width="32" height="32" viewBox="0 0 32 32"><defs><style>.cls-1{fill:#f5b8d6;}</style></defs><path class="cls-1" d="M4.61,30.59c-.78,.78-2.05,.78-2.83,0l-.37-.37c-.78-.78-.78-2.05,0-2.83l9.97-9.97c.78-.78,.78-2.05,0-2.83L1.41,4.61c-.78-.78-.78-2.05,0-2.83l.37-.37c.78-.78,2.05-.78,2.83,0L14.59,11.39c.78,.78,2.05,.78,2.83,0L27.39,1.41c.78-.78,2.05-.78,2.83,0l.37,.37c.78,.78,.78,2.05,0,2.83l-9.97,9.97c-.78,.78-.78,2.05,0,2.83l9.97,9.97c.78,.78,.78,2.05,0,2.83l-.37,.37c-.78,.78-2.05,.78-2.83,0l-9.97-9.97c-.78-.78-2.05-.78-2.83,0L4.61,30.59Z"/></svg>