<?xml version="1.0" encoding="UTF-8"?><svg id="Layer_1" xmlns="http://www.w3.org/2000/svg" width="32" height="32" viewBox="0 0 32 32"><defs><style>.cls-1{fill:#f5b8d6;}.cls-2{fill:none;stroke:#f5b8d6;}</style></defs><path class="cls-1" d="M32,16.04C32,7.19,24.83,0,16,0S0,7.19,0,16.04c0,7.76,5.5,14.23,12.8,15.72v-10.91h-3.2v-4.81h3.2v-4.01c0-3.1,2.51-5.61,5.6-5.61h4v4.81h-3.2c-.88,0-1.6,.72-1.6,1.6v3.21h4.8v4.81h-4.8v11.15c8.08-.8,14.4-7.64,14.4-15.96Z"/><path class="cls-2" d="M32,16.04C32,7.19,24.83,0,16,0S0,7.19,0,16.04c0,7.76,5.5,14.23,12.8,15.72v-10.91h-3.2v-4.81h3.2v-4.01c0-3.1,2.51-5.61,5.6-5.61h4v4.81h-3.2c-.88,0-1.6,.72-1.6,1.6v3.21h4.8v4.81h-4.8v11.15c8.08-.8,14.4-7.64,14.4-15.96Z"/></svg>