<?xml version="1.0" encoding="UTF-8"?><svg id="Layer_1" xmlns="http://www.w3.org/2000/svg" width="40" height="34" viewBox="0 0 40 34"><defs><style>.cls-1{fill:#f5b8d6;stroke:#f5b8d6;}</style></defs><path class="cls-1" d="M3.12,33.5H36.88c.36,0,.72-.08,1.06-.22,.33-.14,.63-.35,.88-.6,.25-.26,.44-.57,.56-.91,.12-.34,.15-.7,.11-1.05,0,0,0,0,0,0l-2.52-21.35c-.07-.62-.39-1.19-.88-1.6-.49-.41-1.11-.63-1.75-.62h-6.13c-.29-1.78-1.22-3.41-2.63-4.61-1.53-1.31-3.52-2.03-5.58-2.03s-4.05,.72-5.58,2.03c-1.41,1.21-2.34,2.84-2.63,4.61H5.66c-.64,0-1.27,.22-1.75,.62-.49,.41-.8,.98-.88,1.6,0,0,0,0,0,0L.52,30.72s0,0,0,0c-.04,.35,0,.71,.11,1.05,.12,.34,.31,.65,.56,.91,.25,.26,.55,.46,.88,.6,.33,.14,.69,.21,1.06,.22Zm33.92-2.41h0s0,.01,0,.01c-.02,.02-.04,.03-.06,.04l.19,.46-.19-.46s-.06,.02-.09,.02H3.13s-.06,0-.09-.02l-.19,.46,.19-.46s-.05-.03-.06-.04h0s0-.01,0-.01c-.01-.01-.02-.03-.03-.04,0-.01,0-.03,0-.04h0s0-.02,0-.02L5.45,9.64h0s0-.02,0-.02c0-.03,.02-.06,.05-.09,.04-.03,.09-.05,.15-.05h0s.01,0,.01,0h6.03v4.17c0,.32,.14,.62,.37,.84,.23,.22,.53,.33,.84,.33s.62-.12,.84-.33l-.34-.36,.34,.36c.23-.22,.37-.52,.37-.84v-4.17h11.78v4.17c0,.32,.14,.62,.37,.84,.23,.22,.53,.33,.84,.33s.62-.12,.84-.33c.23-.22,.37-.52,.37-.84v-4.17h6.03s.01,0,.01,0c.06,0,.11,.02,.15,.05,.03,.03,.05,.06,.05,.09h0s0,.02,0,.02l2.52,21.35h0s0,.02,0,.02c0,.01,0,.03,0,.04l.47,.16-.47-.16s-.01,.03-.03,.04ZM20,2.8c1.46,0,2.86,.51,3.94,1.42,.93,.78,1.56,1.8,1.82,2.92H14.24c.26-1.12,.9-2.15,1.82-2.92,1.08-.91,2.48-1.41,3.94-1.42Z"/></svg>